<svg width="729" height="195" viewBox="0 0 729 195" fill="none" xmlns="http://www.w3.org/2000/svg">
<path d="M96.377 1.60799V17.992H58.745V93H38.649V17.992H0.889006V1.60799H96.377ZM133.449 93H113.481V1.60799H168.521C189.385 1.60799 203.337 13.512 203.337 31.176C203.337 43.848 196.169 53.448 184.649 57.544L205.129 93H184.265L165.193 60.104H133.449V93ZM133.449 43.72H169.929C177.865 43.72 183.241 38.6 183.241 31.048C183.241 23.24 177.353 17.992 168.521 17.992H133.449V43.72ZM270.847 94.664C238.463 94.664 218.751 76.616 218.751 47.432C218.751 18.12 238.463 0.0719986 270.847 0.0719986C303.231 0.0719986 323.071 18.12 323.071 47.432C323.071 76.616 303.231 94.664 270.847 94.664ZM239.615 47.432C239.615 66.376 251.647 78.28 270.847 78.28C290.175 78.28 302.207 66.376 302.207 47.432C302.207 28.36 290.175 16.456 270.847 16.456C251.647 16.456 239.615 28.36 239.615 47.432ZM418.384 76.616V93H341.456V1.60799H361.424V76.616H418.384ZM514.184 76.616V93H437.256V1.60799H457.224V76.616H514.184ZM609.344 37.704V54.088H553.024V76.616H612.032V93H533.056V1.60799H612.032V17.992H553.024V37.704H609.344ZM669.128 58.056L629.96 1.60799H651.72L678.984 41.416H679.24L706.504 1.60799H728.264L689.096 58.056V93H669.128V58.056ZM40.581 193V101.608H96.517C116.485 101.608 128.645 110.952 128.645 125.928C128.645 135.528 123.269 142.696 114.437 144.872V145.128C124.805 147.176 131.205 155.368 131.205 166.504C131.205 182.888 119.045 193 98.949 193H40.581ZM60.549 177.256H97.925C105.477 177.256 110.341 172.648 110.341 165.224C110.341 157.672 105.093 152.936 96.645 152.936H60.549V177.256ZM60.549 137.32H96.645C103.429 137.32 107.781 133.48 107.781 127.464C107.781 121.32 103.045 117.352 95.621 117.352H60.549V137.32ZM149.61 155.624V101.608H169.706V156.136C169.706 169.32 179.946 178.152 195.434 178.28C211.05 178.28 221.418 169.448 221.418 156.136V101.608H241.386V155.624C241.386 179.048 223.082 194.664 195.434 194.664C167.914 194.664 149.61 179.048 149.61 155.624ZM303.901 100.072C331.549 100.072 348.445 111.72 348.445 130.664H328.349C328.349 121.96 319.005 116.456 303.901 116.456C289.309 116.456 280.221 120.552 280.221 127.208C280.221 144.616 349.853 129.384 349.853 166.376C349.853 183.912 332.957 194.664 305.437 194.664C274.973 194.664 256.285 181.992 256.285 161.256H276.381C276.381 171.752 287.517 178.28 305.565 178.28C320.541 178.28 329.757 173.8 329.757 166.632C329.757 147.048 260.125 165.736 260.125 127.336C260.125 110.44 276.765 100.072 303.901 100.072ZM369.606 193V101.608H425.542C445.51 101.608 457.67 110.952 457.67 125.928C457.67 135.528 452.294 142.696 443.462 144.872V145.128C453.83 147.176 460.23 155.368 460.23 166.504C460.23 182.888 448.07 193 427.974 193H369.606ZM389.574 177.256H426.95C434.502 177.256 439.366 172.648 439.366 165.224C439.366 157.672 434.118 152.936 425.67 152.936H389.574V177.256ZM389.574 137.32H425.67C432.454 137.32 436.806 133.48 436.806 127.464C436.806 121.32 432.07 117.352 424.646 117.352H389.574V137.32ZM517.128 101.608H537.48L579.848 193H559.624L550.28 173.16H504.328L495.112 193H474.76L517.128 101.608ZM511.112 158.312H543.496L527.368 123.496L511.112 158.312ZM618.674 193H598.706V101.608H653.746C674.61 101.608 688.562 113.512 688.562 131.176C688.562 143.848 681.394 153.448 669.874 157.544L690.354 193H669.49L650.418 160.104H618.674V193ZM618.674 143.72H655.154C663.09 143.72 668.466 138.6 668.466 131.048C668.466 123.24 662.578 117.992 653.746 117.992H618.674V143.72Z" fill="black"/>
</svg>
